<?xml version="1.0" encoding="UTF-8" standalone="no"?>
<!DOCTYPE svg PUBLIC "-//W3C//DTD SVG 1.1//EN" "http://www.w3.org/Graphics/SVG/1.1/DTD/svg11.dtd">
<svg xmlns="http://www.w3.org/2000/svg" xmlns:xlink="http://www.w3.org/1999/xlink" version="1.1" width="1080pt" height="1920pt" viewBox="0 0 1080 1920">
<g enable-background="new">
<path transform="matrix(1.117261,0,0,1.117261,549.24966,580.6899)" d="M 0 0 L 322.00364 0 L 322.00364 32 L 0 32 L 0 0 Z " fill="#26ad61"/>
<text fill="#ffffff" xml:space="preserve" transform="matrix(.88576987 0 0 .88576987 -197.20417 349.38087)" font-size="16.39748" font-family="Helvetica" font-weight="bold"><tspan y="287.0596" x="859.11508 864.57546 873.69247 883.7113 893.73019 898.28866 908.3075 918.32638">typology</tspan></text>
<path transform="matrix(1.117261,0,0,1.117261,549.24966,616.44229)" d="M 0 0 L 322.00364 0 L 322.00364 29 L 0 29 L 0 0 Z " fill="#f7f7f7"/>
<text fill="#151515" xml:space="preserve" transform="matrix(.88576987 0 0 .88576987 -197.20417 349.38087)" font-size="15.136136" font-family="Helvetica"><tspan y="325.08915" x="859.11508 869.2109 877.6266 887.7224 897.81826 908.7465 920.52249 928.9382 939.034 943.2418 954.1701 965.94607 977.722 986.1377">ALBERO_SINGOLO</tspan></text>
<path transform="matrix(1.117261,0,0,1.117261,549.24966,648.8428)" d="M 0 0 L 322.00364 0 L 322.00364 29 L 0 29 L 0 0 Z " fill="#f7f7f7"/>
<text fill="#151515" xml:space="preserve" transform="matrix(.88576987 0 0 .88576987 -197.20417 349.38087)" font-size="15.136136" font-family="Helvetica"><tspan y="361.66813" x="859.11508 870.891 881.8193 892.74758 902.8434 912.9392">GRUPPO</tspan></text>
<path transform="matrix(1.117261,0,0,1.117261,549.24966,681.2434)" d="M 0 0 L 322.00364 0 L 322.00364 29 L 0 29 L 0 0 Z " fill="#f7f7f7"/>
<text fill="#151515" xml:space="preserve" transform="matrix(.88576987 0 0 .88576987 -197.20417 349.38087)" font-size="15.136136" font-family="Helvetica"><tspan y="398.24714" x="859.11508 870.891 881.8193 892.74758 902.8434 912.9392 924.71517 933.13088 943.2267 951.6424 962.5707 973.49899 977.7068 987.8026 997.89846 1007.99429 1017.24246 1021.45028 1032.3786 1036.5864 1045.8346">GRUPPO_PLURISPEFICIFO</tspan></text>
<path transform="matrix(1.117261,0,0,1.117261,549.24966,713.6439)" d="M 0 0 L 322.00364 0 L 322.00364 29 L 0 29 L 0 0 Z " fill="#f7f7f7"/>
<text fill="#151515" xml:space="preserve" transform="matrix(.88576987 0 0 .88576987 -197.20417 349.38087)" font-size="15.136136" font-family="Helvetica"><tspan y="434.8261" x="859.11508 868.3632 872.57107 880.98678 891.0826 902.01089 912.1067 920.5224 930.6182 934.82608 945.75436 957.5303 969.3062 977.7219">FILARE_SINGOLO</tspan></text>
<path transform="matrix(1.117261,0,0,1.117261,549.24966,746.0445)" d="M 0 0 L 322.00364 0 L 322.00364 29 L 0 29 L 0 0 Z " fill="#f7f7f7"/>
<text fill="#151515" xml:space="preserve" transform="matrix(.88576987 0 0 .88576987 -197.20417 349.38087)" font-size="15.136136" font-family="Helvetica"><tspan y="471.40513" x="859.11508 868.3632 872.57107 880.98678 891.0826 902.01089 912.1067 920.5224 931.4507 943.2266 953.32247 963.4183 967.6261">FILARE_DOPPIO</tspan></text>
<path transform="matrix(1.117261,0,0,1.117261,549.24966,778.44509)" d="M 0 0 L 322.00364 0 L 322.00364 29 L 0 29 L 0 0 Z " fill="#f7f7f7"/>
<text fill="#151515" xml:space="preserve" transform="matrix(.88576987 0 0 .88576987 -197.20417 349.38087)" font-size="15.136136" font-family="Helvetica"><tspan y="507.9841" x="859.11508 869.2109 873.4187 883.5145 891.93026 902.02609 910.4418 920.5376 928.9533 939.04916 949.14498 960.07327 970.16909 979.41726">VIALE_ALBERATO</tspan></text>
<path transform="matrix(1.117261,0,0,1.117261,549.24966,853.3016)" d="M 0 0 L 269.05296 0 L 269.05296 32 L 0 32 L 0 0 Z " fill="#26ad61"/>
<text fill="#ffffff" xml:space="preserve" transform="matrix(.88576987 0 0 .88576987 -197.20417 349.38087)" font-size="16.39748" font-family="Helvetica" font-weight="bold"><tspan y="594.8277" x="859.11508 868.23208 878.2509 888.2698 893.73019 902.84719 911.9642">context</tspan></text>
<path transform="matrix(1.117261,0,0,1.117261,549.24966,889.0539)" d="M 0 0 L 269.05296 0 L 269.05296 29 L 0 29 L 0 0 Z " fill="#f7f7f7"/>
<text fill="#151515" xml:space="preserve" transform="matrix(.88576987 0 0 .88576987 -197.20417 349.38087)" font-size="15.136136" font-family="Helvetica"><tspan y="632.85726" x="859.11508 870.04336 880.9716 891.06747 901.16329 912.09158">URBANO</tspan></text>
<path transform="matrix(1.117261,0,0,1.117261,549.24966,921.45449)" d="M 0 0 L 269.05296 0 L 269.05296 29 L 0 29 L 0 0 Z " fill="#f7f7f7"/>
<text fill="#151515" xml:space="preserve" transform="matrix(.88576987 0 0 .88576987 -197.20417 349.38087)" font-size="15.136136" font-family="Helvetica"><tspan y="669.4362" x="859.11508 869.2109 879.3067 888.5549 899.48318 909.579 917.9947 928.923 939.85128 949.9471 960.0429 970.9712">EXTRA_URBANO</tspan></text>
<path transform="matrix(1.117261,0,0,1.117261,549.24966,375.11387)" d="M 0 0 L 403.44227 0 L 403.44227 32 L 0 32 L 0 0 Z " fill="#26ad61"/>
<text fill="#ffffff" xml:space="preserve" transform="matrix(.88576987 0 0 .88576987 -197.20417 349.38087)" font-size="16.39748" font-family="Helvetica" font-weight="bold"><tspan y="54.97219" x="859.11508 868.23208 873.69247 882.80947 888.26986 898.2887">status</tspan></text>
<path transform="matrix(1.117261,0,0,1.117261,549.24966,410.8662)" d="M 0 0 L 403.44227 0 L 403.44227 29 L 0 29 L 0 0 Z " fill="#f7f7f7"/>
<text fill="#151515" xml:space="preserve" transform="matrix(.88576987 0 0 .88576987 -197.20417 349.38087)" font-size="15.136136" font-family="Helvetica"><tspan y="93.00173" x="859.11508 863.3229 873.4187 884.347 895.27529 899.4831 908.73129 917.97946 929.7554 938.1711 942.3789 953.3072 961.7229 971.8187 980.23446 990.33029 1001.25857 1012.1868">ISCRITTO_IN_ELENCO</tspan></text>
<path transform="matrix(1.117261,0,0,1.117261,549.24966,443.26679)" d="M 0 0 L 403.44227 0 L 403.44227 29 L 0 29 L 0 0 Z " fill="#f7f7f7"/>
<text fill="#151515" xml:space="preserve" transform="matrix(.88576987 0 0 .88576987 -197.20417 349.38087)" font-size="15.136136" font-family="Helvetica"><tspan y="129.58072" x="859.11508 870.04336 874.25119 886.85958 898.6355 908.7313 918.82717 930.6031 939.0188 949.1146 959.21047 970.13876 978.55447 988.65029 998.7461 1008.8419 1018.93777 1028.1859 1037.4341 1041.642 1054.2504 1064.3462 1075.2745 1084.5227">RIMOSSO_PER_ABBATTIMENTO</tspan></text>
<path transform="matrix(1.117261,0,0,1.117261,549.24966,475.66737)" d="M 0 0 L 403.44227 0 L 403.44227 29 L 0 29 L 0 0 Z " fill="#f7f7f7"/>
<text fill="#151515" xml:space="preserve" transform="matrix(.88576987 0 0 .88576987 -197.20417 349.38087)" font-size="15.136136" font-family="Helvetica"><tspan y="166.15972" x="859.11508 870.04336 874.25119 886.85958 898.6355 908.7313 918.82717 930.6031 939.0188 949.1146 959.21047 970.13876 978.55447 991.16287 1002.9388 1013.86709 1023.11526 1033.211 1041.6267 1052.555 1062.6509 1071.899 1082.8274 1093.7557 1103.8516 1112.2672">RIMOSSO_PER_MORTE_NATURALE</tspan></text>
<path transform="matrix(1.117261,0,0,1.117261,549.24966,508.06794)" d="M 0 0 L 403.44227 0 L 403.44227 29 L 0 29 L 0 0 Z " fill="#f7f7f7"/>
<text fill="#151515" xml:space="preserve" transform="matrix(.88576987 0 0 .88576987 -197.20417 349.38087)" font-size="15.136136" font-family="Helvetica"><tspan y="202.73871" x="859.11508 870.04336 874.25119 886.85958 898.6355 908.7313 918.82717 930.6031 939.0188 949.1146 959.21047 970.13876 978.55447 988.65029 998.7461 1009.6744 1020.60269 1024.8106 1034.0587 1044.1546 1052.5702 1063.4985 1073.5944 1085.3703 1096.2986 1100.5065 1110.6023 1114.8102 1124.0584 1128.2662 1139.1946 1143.4025 1156.0109">RIMOSSO_PER_PERDITA_REQUISITIRIMO</tspan></text>
<path transform="matrix(1.117261,0,0,1.117261,80,375.11387)" d="M 0 0 L 346.92915 0 L 346.92915 32 L 0 32 L 0 0 Z " fill="#26ad61"/>
<text fill="#ffffff" xml:space="preserve" transform="matrix(.88576987 0 0 .88576987 -197.20417 349.38087)" font-size="16.39748" font-family="Helvetica" font-weight="bold"><tspan y="54.97219" x="329.35029 343.92765 353.9465 363.96537 373.98423 388.56159 397.6786 407.69746 413.1578 422.2748 426.8333 435.95033 441.41069 447.7893 456.9063">monumental_tree</tspan></text>
<path transform="matrix(1.117261,0,0,1.117261,80,410.8662)" d="M 0 0 L 346.92915 0 L 346.92915 29 L 0 29 L 0 0 Z " fill="#f7f7f7"/>
<text xml:space="preserve" transform="matrix(.88576987 0 0 .88576987 -197.20417 349.38087)" font-size="15.136136" font-family="Helvetica"><tspan y="93.00173" x="329.35029 332.7105">id</tspan></text>
<text fill="#a9a9a9" xml:space="preserve" transform="matrix(.88576987 0 0 .88576987 -197.20417 349.38087)" font-size="15.136136" font-family="Helvetica"><tspan y="93.00173" x="695.8589 703.42697 711.84268 716.883 720.2432 728.65896">serial</tspan></text>
<path transform="matrix(1.117261,0,0,1.117261,80,443.26679)" d="M 0 0 L 346.92915 0 L 346.92915 29 L 0 29 L 0 0 Z " fill="#f7f7f7"/>
<text fill="#151515" xml:space="preserve" transform="matrix(.88576987 0 0 .88576987 -197.20417 349.38087)" font-size="15.136136" font-family="Helvetica"><tspan y="129.58072" x="329.35029 336.91835 341.1262 349.54188 353.74974 362.1654">status</tspan></text>
<text fill="#a9a9a9" xml:space="preserve" transform="matrix(.88576987 0 0 .88576987 -197.20417 349.38087)" font-size="15.136136" font-family="Helvetica"><tspan y="129.58072" x="695.0311 702.5992 706.807 715.2227 719.43057 727.84628">status</tspan></text>
<path transform="matrix(1.117261,0,0,1.117261,80,475.66737)" d="M 0 0 L 346.92915 0 L 346.92915 29 L 0 29 L 0 0 Z " fill="#f7f7f7"/>
<text fill="#151515" xml:space="preserve" transform="matrix(.88576987 0 0 .88576987 -197.20417 349.38087)" font-size="15.136136" font-family="Helvetica"><tspan y="166.15972" x="329.35029 337.76597 346.18165 349.54188 357.95756 362.1654 370.5811 373.9413">point_id</tspan></text>
<text fill="#a9a9a9" xml:space="preserve" transform="matrix(.88576987 0 0 .88576987 -197.20417 349.38087)" font-size="15.136136" font-family="Helvetica"><tspan y="166.15972" x="583.986 591.5541 599.9698 608.3855 613.42587 621.84158 629.4096 633.61746 642.03317 647.0735 651.2813 658.84939 667.2651 672.3054 679.8735 683.2337 691.6494 700.0651 705.10549 713.5212 721.9369 730.3526">character varying(255)</tspan></text>
<path transform="matrix(1.117261,0,0,1.117261,80,508.06794)" d="M 0 0 L 346.92915 0 L 346.92915 29 L 0 29 L 0 0 Z " fill="#f7f7f7"/>
<text fill="#151515" xml:space="preserve" transform="matrix(.88576987 0 0 .88576987 -197.20417 349.38087)" font-size="15.136136" font-family="Helvetica"><tspan y="202.73871" x="329.35029 333.55815 341.1262 349.54188 357.95756 361.31779 369.73347 378.14915">typology</tspan></text>
<text fill="#a9a9a9" xml:space="preserve" transform="matrix(.88576987 0 0 .88576987 -197.20417 349.38087)" font-size="15.136136" font-family="Helvetica"><tspan y="202.73871" x="679.03768 683.2455 690.81356 699.22927 707.64498 711.0052 719.4209 727.8366">typology</tspan></text>
<path transform="matrix(1.117261,0,0,1.117261,80,540.4685)" d="M 0 0 L 346.92915 0 L 346.92915 29 L 0 29 L 0 0 Z " fill="#f7f7f7"/>
<text fill="#151515" xml:space="preserve" transform="matrix(.88576987 0 0 .88576987 -197.20417 349.38087)" font-size="15.136136" font-family="Helvetica"><tspan y="239.3177" x="329.35029 334.39064 342.8063 351.222 354.5822 362.9979">region</tspan></text>
<text fill="#a9a9a9" xml:space="preserve" transform="matrix(.88576987 0 0 .88576987 -197.20417 349.38087)" font-size="15.136136" font-family="Helvetica"><tspan y="239.3177" x="583.986 591.5541 599.9698 608.3855 613.42587 621.84158 629.4096 633.61746 642.03317 647.0735 651.2813 658.84939 667.2651 672.3054 679.8735 683.2337 691.6494 700.0651 705.10549 713.5212 721.9369 730.3526">character varying(512)</tspan></text>
<path transform="matrix(1.117261,0,0,1.117261,80,572.869)" d="M 0 0 L 346.92915 0 L 346.92915 29 L 0 29 L 0 0 Z " fill="#f7f7f7"/>
<text fill="#151515" xml:space="preserve" transform="matrix(.88576987 0 0 .88576987 -197.20417 349.38087)" font-size="15.136136" font-family="Helvetica"><tspan y="275.8967" x="329.35029 337.76597 342.8063 351.222 358.79005 362.15028 370.56596 378.134">province</tspan></text>
<text fill="#a9a9a9" xml:space="preserve" transform="matrix(.88576987 0 0 .88576987 -197.20417 349.38087)" font-size="15.136136" font-family="Helvetica"><tspan y="275.8967" x="583.986 591.5541 599.9698 608.3855 613.42587 621.84158 629.4096 633.61746 642.03317 647.0735 651.2813 658.84939 667.2651 672.3054 679.8735 683.2337 691.6494 700.0651 705.10549 713.5212 721.9369 730.3526">character varying(512)</tspan></text>
<path transform="matrix(1.117261,0,0,1.117261,80,605.26968)" d="M 0 0 L 346.92915 0 L 346.92915 29 L 0 29 L 0 0 Z " fill="#f7f7f7"/>
<text fill="#151515" xml:space="preserve" transform="matrix(.88576987 0 0 .88576987 -197.20417 349.38087)" font-size="15.136136" font-family="Helvetica"><tspan y="312.4757" x="329.35029 332.7105 341.1262 348.69425 357.10993 360.47016 363.83039 368.03825">locality</tspan></text>
<text fill="#a9a9a9" xml:space="preserve" transform="matrix(.88576987 0 0 .88576987 -197.20417 349.38087)" font-size="15.136136" font-family="Helvetica"><tspan y="312.4757" x="575.568 583.13607 591.55178 599.96749 605.0078 613.4235 620.9916 625.1994 633.6151 638.65548 642.8633 650.43136 658.84707 663.8874 671.45547 674.8157 683.2314 691.6471 696.68746 705.10317 713.51889 721.9346 730.3503">character varying(1204)</tspan></text>
<path transform="matrix(1.117261,0,0,1.117261,80,637.67019)" d="M 0 0 L 346.92915 0 L 346.92915 29 L 0 29 L 0 0 Z " fill="#f7f7f7"/>
<text fill="#151515" xml:space="preserve" transform="matrix(.88576987 0 0 .88576987 -197.20417 349.38087)" font-size="15.136136" font-family="Helvetica"><tspan y="349.0547" x="329.35029 337.76597 341.1262 349.54188 357.10993">place</tspan></text>
<text fill="#a9a9a9" xml:space="preserve" transform="matrix(.88576987 0 0 .88576987 -197.20417 349.38087)" font-size="15.136136" font-family="Helvetica"><tspan y="349.0547" x="575.568 583.13607 591.55178 599.96749 605.0078 613.4235 620.9916 625.1994 633.6151 638.65548 642.8633 650.43136 658.84707 663.8874 671.45547 674.8157 683.2314 691.6471 696.68746 705.10317 713.51889 721.9346 730.3503">character varying(1204)</tspan></text>
<path transform="matrix(1.117261,0,0,1.117261,80,670.0708)" d="M 0 0 L 346.92915 0 L 346.92915 29 L 0 29 L 0 0 Z " fill="#f7f7f7"/>
<text fill="#151515" xml:space="preserve" transform="matrix(.88576987 0 0 .88576987 -197.20417 349.38087)" font-size="15.136136" font-family="Helvetica"><tspan y="385.6337" x="329.35029 332.7105 341.1262 345.33406 348.69429 352.90214 361.3178 369.7335">latitude</tspan></text>
<text fill="#a9a9a9" xml:space="preserve" transform="matrix(.88576987 0 0 .88576987 -197.20417 349.38087)" font-size="15.136136" font-family="Helvetica"><tspan y="385.6337" x="625.1817 633.5974 642.0131 650.42886 658.84457 662.2048 670.6205 674.8283 683.244 688.28439 696.7001 704.2681 707.62838 715.1964 718.55667 726.97238">double precision</tspan></text>
<path transform="matrix(1.117261,0,0,1.117261,80,702.4713)" d="M 0 0 L 346.92915 0 L 346.92915 29 L 0 29 L 0 0 Z " fill="#f7f7f7"/>
<text fill="#151515" xml:space="preserve" transform="matrix(.88576987 0 0 .88576987 -197.20417 349.38087)" font-size="15.136136" font-family="Helvetica"><tspan y="422.21269" x="329.35029 332.7105 341.1262 349.54188 357.95756 361.31779 365.52565 373.9413 382.357">longitude</tspan></text>
<text fill="#a9a9a9" xml:space="preserve" transform="matrix(.88576987 0 0 .88576987 -197.20417 349.38087)" font-size="15.136136" font-family="Helvetica"><tspan y="422.21269" x="625.1817 633.5974 642.0131 650.42886 658.84457 662.2048 670.6205 674.8283 683.244 688.28439 696.7001 704.2681 707.62838 715.1964 718.55667 726.97238">double precision</tspan></text>
<path transform="matrix(1.117261,0,0,1.117261,80,734.87197)" d="M 0 0 L 346.92915 0 L 346.92915 29 L 0 29 L 0 0 Z " fill="#f7f7f7"/>
<text fill="#151515" xml:space="preserve" transform="matrix(.88576987 0 0 .88576987 -197.20417 349.38087)" font-size="15.136136" font-family="Helvetica"><tspan y="458.79167" x="329.35029 337.76597 341.1262 345.33406 348.69429 352.90214 361.3178 369.7335">altitude</tspan></text>
<text fill="#a9a9a9" xml:space="preserve" transform="matrix(.88576987 0 0 .88576987 -197.20417 349.38087)" font-size="15.136136" font-family="Helvetica"><tspan y="458.79167" x="625.1817 633.5974 642.0131 650.42886 658.84457 662.2048 670.6205 674.8283 683.244 688.28439 696.7001 704.2681 707.62838 715.1964 718.55667 726.97238">double precision</tspan></text>
<path transform="matrix(1.117261,0,0,1.117261,80,767.27249)" d="M 0 0 L 346.92915 0 L 346.92915 29 L 0 29 L 0 0 Z " fill="#f7f7f7"/>
<text fill="#151515" xml:space="preserve" transform="matrix(.88576987 0 0 .88576987 -197.20417 349.38087)" font-size="15.136136" font-family="Helvetica"><tspan y="495.37068" x="329.35029 337.76597 346.18165 354.59733 359.63768">genre</tspan></text>
<text fill="#a9a9a9" xml:space="preserve" transform="matrix(.88576987 0 0 .88576987 -197.20417 349.38087)" font-size="15.136136" font-family="Helvetica"><tspan y="495.37068" x="575.568 583.13607 591.55178 599.96749 605.0078 613.4235 620.9916 625.1994 633.6151 638.65548 642.8633 650.43136 658.84707 663.8874 671.45547 674.8157 683.2314 691.6471 696.68746 705.10317 713.51889 721.9346 730.3503">character varying(1204)</tspan></text>
<path transform="matrix(1.117261,0,0,1.117261,80,799.67306)" d="M 0 0 L 346.92915 0 L 346.92915 29 L 0 29 L 0 0 Z " fill="#f7f7f7"/>
<text fill="#151515" xml:space="preserve" transform="matrix(.88576987 0 0 .88576987 -197.20417 349.38087)" font-size="15.136136" font-family="Helvetica"><tspan y="531.94967" x="329.35029 336.91835 344.4864 347.84663 356.2623 364.67799 368.88584 372.24607 376.45393 379.81416 387.3822 395.79789 404.21357 412.62925 425.23765">scientific_name</tspan></text>
<text fill="#a9a9a9" xml:space="preserve" transform="matrix(.88576987 0 0 .88576987 -197.20417 349.38087)" font-size="15.136136" font-family="Helvetica"><tspan y="531.94967" x="575.568 583.13607 591.55178 599.96749 605.0078 613.4235 620.9916 625.1994 633.6151 638.65548 642.8633 650.43136 658.84707 663.8874 671.45547 674.8157 683.2314 691.6471 696.68746 705.10317 713.51889 721.9346 730.3503">character varying(1204)</tspan></text>
<path transform="matrix(1.117261,0,0,1.117261,80,832.0736)" d="M 0 0 L 346.92915 0 L 346.92915 29 L 0 29 L 0 0 Z " fill="#f7f7f7"/>
<text fill="#151515" xml:space="preserve" transform="matrix(.88576987 0 0 .88576987 -197.20417 349.38087)" font-size="15.136136" font-family="Helvetica"><tspan y="568.5286" x="329.35029 336.91835 345.334 357.9424 370.5508 378.9665 387.38218 395.79786 404.21354 412.6292 425.2376">common_name</tspan></text>
<text fill="#a9a9a9" xml:space="preserve" transform="matrix(.88576987 0 0 .88576987 -197.20417 349.38087)" font-size="15.136136" font-family="Helvetica"><tspan y="568.5286" x="575.568 583.13607 591.55178 599.96749 605.0078 613.4235 620.9916 625.1994 633.6151 638.65548 642.8633 650.43136 658.84707 663.8874 671.45547 674.8157 683.2314 691.6471 696.68746 705.10317 713.51889 721.9346 730.3503">character varying(1204)</tspan></text>
<path transform="matrix(1.117261,0,0,1.117261,80,864.4742)" d="M 0 0 L 346.92915 0 L 346.92915 29 L 0 29 L 0 0 Z " fill="#f7f7f7"/>
<text fill="#151515" xml:space="preserve" transform="matrix(.88576987 0 0 .88576987 -197.20417 349.38087)" font-size="15.136136" font-family="Helvetica"><tspan y="605.10769" x="329.35029 336.91835 345.334 353.7497 357.95756 366.37324 373.94129">context</tspan></text>
<text fill="#a9a9a9" xml:space="preserve" transform="matrix(.88576987 0 0 .88576987 -197.20417 349.38087)" font-size="15.136136" font-family="Helvetica"><tspan y="605.10769" x="686.61318 694.1812 702.5969 711.01266 715.22048 723.63619 731.2042">context</tspan></text>
<path transform="matrix(1.117261,0,0,1.117261,80,896.87478)" d="M 0 0 L 346.92915 0 L 346.92915 29 L 0 29 L 0 0 Z " fill="#f7f7f7"/>
<text fill="#151515" xml:space="preserve" transform="matrix(.88576987 0 0 .88576987 -197.20417 349.38087)" font-size="15.136136" font-family="Helvetica"><tspan y="641.68667" x="329.35029 337.76597 346.18165 354.59733 363.013 370.58106 375.6214 378.98164 383.18949 391.60517 396.6455 400.00575">age_criteria</tspan></text>
<text fill="#a9a9a9" xml:space="preserve" transform="matrix(.88576987 0 0 .88576987 -197.20417 349.38087)" font-size="15.136136" font-family="Helvetica"><tspan y="641.68667" x="681.54318 689.95889 698.3746 706.7903 710.1505 718.5662 726.98196">boolean</tspan></text>
<path transform="matrix(1.117261,0,0,1.117261,80,929.2753)" d="M 0 0 L 346.92915 0 L 346.92915 29 L 0 29 L 0 0 Z " fill="#f7f7f7"/>
<text fill="#151515" xml:space="preserve" transform="matrix(.88576987 0 0 .88576987 -197.20417 349.38087)" font-size="15.136136" font-family="Helvetica"><tspan y="678.2656" x="329.35029 336.91835 340.27857 345.3189 352.88697 361.30265 373.91105 378.1189 386.53459 391.57493 399.9906 408.40629 415.97434 424.39 432.8057 440.37376 445.4141 448.77433 452.98219 461.39787 466.4382 469.79844">circumference_criteria</tspan></text>
<text fill="#a9a9a9" xml:space="preserve" transform="matrix(.88576987 0 0 .88576987 -197.20417 349.38087)" font-size="15.136136" font-family="Helvetica"><tspan y="678.2656" x="681.54318 689.95889 698.3746 706.7903 710.1505 718.5662 726.98196">boolean</tspan></text>
<path transform="matrix(1.117261,0,0,1.117261,80,961.6759)" d="M 0 0 L 346.92915 0 L 346.92915 29 L 0 29 L 0 0 Z " fill="#f7f7f7"/>
<text fill="#151515" xml:space="preserve" transform="matrix(.88576987 0 0 .88576987 -197.20417 349.38087)" font-size="15.136136" font-family="Helvetica"><tspan y="714.8446" x="329.35029 337.76597 346.18165 349.54188 357.95756 366.37324 370.5811 378.99678 386.56483 391.60517 394.9654 399.17326 407.58894 412.62928 415.9895">height_criteria</tspan></text>
<text fill="#a9a9a9" xml:space="preserve" transform="matrix(.88576987 0 0 .88576987 -197.20417 349.38087)" font-size="15.136136" font-family="Helvetica"><tspan y="714.8446" x="681.54318 689.95889 698.3746 706.7903 710.1505 718.5662 726.98196">boolean</tspan></text>
<path transform="matrix(1.117261,0,0,1.117261,80,994.0765)" d="M 0 0 L 346.92915 0 L 346.92915 29 L 0 29 L 0 0 Z " fill="#f7f7f7"/>
<text fill="#151515" xml:space="preserve" transform="matrix(.88576987 0 0 .88576987 -197.20417 349.38087)" font-size="15.136136" font-family="Helvetica"><tspan y="751.42367" x="329.35029 336.91835 341.95869 350.37437 361.30265 369.71833 378.134 385.70207 390.7424 394.10264 398.3105 406.72618 411.7665 415.12675">crown_criteria</tspan></text>
<text fill="#a9a9a9" xml:space="preserve" transform="matrix(.88576987 0 0 .88576987 -197.20417 349.38087)" font-size="15.136136" font-family="Helvetica"><tspan y="751.42367" x="681.54318 689.95889 698.3746 706.7903 710.1505 718.5662 726.98196">boolean</tspan></text>
<path transform="matrix(1.117261,0,0,1.117261,80,1026.477)" d="M 0 0 L 346.92915 0 L 346.92915 29 L 0 29 L 0 0 Z " fill="#f7f7f7"/>
<text fill="#151515" xml:space="preserve" transform="matrix(.88576987 0 0 .88576987 -197.20417 349.38087)" font-size="15.136136" font-family="Helvetica"><tspan y="788.0026" x="329.35029 336.91835 345.334 353.7497 362.16539 370.58106 378.99674 386.5648 391.60514 394.96537 399.17323 407.5889 412.62925 415.98948">shape_criteria</tspan></text>
<text fill="#a9a9a9" xml:space="preserve" transform="matrix(.88576987 0 0 .88576987 -197.20417 349.38087)" font-size="15.136136" font-family="Helvetica"><tspan y="788.0026" x="681.54318 689.95889 698.3746 706.7903 710.1505 718.5662 726.98196">boolean</tspan></text>
<path transform="matrix(1.117261,0,0,1.117261,80,1058.8776)" d="M 0 0 L 346.92915 0 L 346.92915 29 L 0 29 L 0 0 Z " fill="#f7f7f7"/>
<text fill="#151515" xml:space="preserve" transform="matrix(.88576987 0 0 .88576987 -197.20417 349.38087)" font-size="15.136136" font-family="Helvetica"><tspan y="824.5816" x="329.35029 337.76597 345.334 353.7497 357.10993 365.5256 373.94129 377.3015 384.86958 393.28526 396.64549 405.06117 412.6292 417.66957 421.0298 425.23765 433.65333 438.69367 442.0539">ecological_criteria</tspan></text>
<text fill="#a9a9a9" xml:space="preserve" transform="matrix(.88576987 0 0 .88576987 -197.20417 349.38087)" font-size="15.136136" font-family="Helvetica"><tspan y="824.5816" x="681.54318 689.95889 698.3746 706.7903 710.1505 718.5662 726.98196">boolean</tspan></text>
<path transform="matrix(1.117261,0,0,1.117261,80,1091.2782)" d="M 0 0 L 346.92915 0 L 346.92915 29 L 0 29 L 0 0 Z " fill="#f7f7f7"/>
<text fill="#151515" xml:space="preserve" transform="matrix(.88576987 0 0 .88576987 -197.20417 349.38087)" font-size="15.136136" font-family="Helvetica"><tspan y="861.1606" x="329.35029 337.76597 346.18165 350.3895 358.80519 367.22087 370.5811 378.14915 386.56483 394.13288 399.17323 402.53346 406.7413 415.15699 420.19734 423.55757">botanic_criteria</tspan></text>
<text fill="#a9a9a9" xml:space="preserve" transform="matrix(.88576987 0 0 .88576987 -197.20417 349.38087)" font-size="15.136136" font-family="Helvetica"><tspan y="861.1606" x="681.54318 689.95889 698.3746 706.7903 710.1505 718.5662 726.98196">boolean</tspan></text>
<path transform="matrix(1.117261,0,0,1.117261,80,1123.6787)" d="M 0 0 L 346.92915 0 L 346.92915 29 L 0 29 L 0 0 Z " fill="#f7f7f7"/>
<text fill="#151515" xml:space="preserve" transform="matrix(.88576987 0 0 .88576987 -197.20417 349.38087)" font-size="15.136136" font-family="Helvetica"><tspan y="897.7396" x="329.35029 337.76597 342.8063 350.37437 358.79005 362.15028 366.35813 374.7738 382.34187 386.5497 394.9654 400.00575 408.42143 416.8371 424.40516 429.4455 432.80574 437.01359 445.42927 450.4696 453.82984">architecture_criteria</tspan></text>
<text fill="#a9a9a9" xml:space="preserve" transform="matrix(.88576987 0 0 .88576987 -197.20417 349.38087)" font-size="15.136136" font-family="Helvetica"><tspan y="897.7396" x="681.54318 689.95889 698.3746 706.7903 710.1505 718.5662 726.98196">boolean</tspan></text>
<path transform="matrix(1.117261,0,0,1.117261,80,1156.0794)" d="M 0 0 L 346.92915 0 L 346.92915 29 L 0 29 L 0 0 Z " fill="#f7f7f7"/>
<text fill="#151515" xml:space="preserve" transform="matrix(.88576987 0 0 .88576987 -197.20417 349.38087)" font-size="15.136136" font-family="Helvetica"><tspan y="934.3186" x="329.35029 332.7105 341.1262 349.54188 357.95756 365.5256 373.09367 381.50935 389.92503 398.3407 406.75639 414.32444 419.36479 422.725 426.93287 435.34855 440.3889 443.7491">landscape_criteria</tspan></text>
<text fill="#a9a9a9" xml:space="preserve" transform="matrix(.88576987 0 0 .88576987 -197.20417 349.38087)" font-size="15.136136" font-family="Helvetica"><tspan y="934.3186" x="681.54318 689.95889 698.3746 706.7903 710.1505 718.5662 726.98196">boolean</tspan></text>
<path transform="matrix(1.117261,0,0,1.117261,80,1188.4799)" d="M 0 0 L 346.92915 0 L 346.92915 29 L 0 29 L 0 0 Z " fill="#f7f7f7"/>
<text fill="#151515" xml:space="preserve" transform="matrix(.88576987 0 0 .88576987 -197.20417 349.38087)" font-size="15.136136" font-family="Helvetica"><tspan y="970.8976" x="329.35029 337.76597 341.1262 348.69425 352.9021 361.31779 366.35813 369.71836 377.2864 385.7021 389.06233 397.478 405.04606 410.0864 413.44664 417.65449 426.07017 431.1105 434.47074">historical_criteria</tspan></text>
<text fill="#a9a9a9" xml:space="preserve" transform="matrix(.88576987 0 0 .88576987 -197.20417 349.38087)" font-size="15.136136" font-family="Helvetica"><tspan y="970.8976" x="681.54318 689.95889 698.3746 706.7903 710.1505 718.5662 726.98196">boolean</tspan></text>
<path transform="matrix(1.117261,0,0,1.117261,80,1220.8805)" d="M 0 0 L 346.92915 0 L 346.92915 29 L 0 29 L 0 0 Z " fill="#f7f7f7"/>
<text fill="#151515" xml:space="preserve" transform="matrix(.88576987 0 0 .88576987 -197.20417 349.38087)" font-size="15.136136" font-family="Helvetica"><tspan y="1007.47659" x="329.35029 337.76597 346.18165 349.54188 357.95756 366.37324">height</tspan></text>
<text fill="#a9a9a9" xml:space="preserve" transform="matrix(.88576987 0 0 .88576987 -197.20417 349.38087)" font-size="15.136136" font-family="Helvetica"><tspan y="1007.47659" x="625.1817 633.5974 642.0131 650.42886 658.84457 662.2048 670.6205 674.8283 683.244 688.28439 696.7001 704.2681 707.62838 715.1964 718.55667 726.97238">double precision</tspan></text>
<path transform="matrix(1.117261,0,0,1.117261,80,1253.281)" d="M 0 0 L 346.92915 0 L 346.92915 29 L 0 29 L 0 0 Z " fill="#f7f7f7"/>
<text fill="#151515" xml:space="preserve" transform="matrix(.88576987 0 0 .88576987 -197.20417 349.38087)" font-size="15.136136" font-family="Helvetica"><tspan y="1044.0556" x="329.35029 336.91835 340.27857 345.3189 352.88697 361.30265 373.91105 378.1189 386.53459 391.57493 399.9906 408.40629 415.97434">circumference</tspan></text>
<text fill="#a9a9a9" xml:space="preserve" transform="matrix(.88576987 0 0 .88576987 -197.20417 349.38087)" font-size="15.136136" font-family="Helvetica"><tspan y="1044.0556" x="625.1817 633.5974 642.0131 650.42886 658.84457 662.2048 670.6205 674.8283 683.244 688.28439 696.7001 704.2681 707.62838 715.1964 718.55667 726.97238">double precision</tspan></text>
<path transform="matrix(1.117261,0,0,1.117261,80,1285.6815)" d="M 0 0 L 346.92915 0 L 346.92915 29 L 0 29 L 0 0 Z " fill="#f7f7f7"/>
<text fill="#151515" xml:space="preserve" transform="matrix(.88576987 0 0 .88576987 -197.20417 349.38087)" font-size="15.136136" font-family="Helvetica"><tspan y="1080.6345" x="329.35029 337.76597 345.334 353.7497 358.79005 367.20573 375.6214 384.03709 392.45277 400.86845 405.90879 414.32447 422.74015 431.15583 439.5715 447.98719 456.40287 459.7631 468.17878 476.59446">average_group_height</tspan></text>
<text fill="#a9a9a9" xml:space="preserve" transform="matrix(.88576987 0 0 .88576987 -197.20417 349.38087)" font-size="15.136136" font-family="Helvetica"><tspan y="1080.6345" x="625.1817 633.5974 642.0131 650.42886 658.84457 662.2048 670.6205 674.8283 683.244 688.28439 696.7001 704.2681 707.62838 715.1964 718.55667 726.97238">double precision</tspan></text>
<path transform="matrix(1.117261,0,0,1.117261,80,1318.0823)" d="M 0 0 L 346.92915 0 L 346.92915 29 L 0 29 L 0 0 Z " fill="#f7f7f7"/>
<text fill="#151515" xml:space="preserve" transform="matrix(.88576987 0 0 .88576987 -197.20417 349.38087)" font-size="15.136136" font-family="Helvetica"><tspan y="1117.2135" x="329.35029 341.95869 350.37437 357.9424 366.3581 374.77378 379.81413 388.2298 396.64549 405.06117 413.47685 421.89253 430.3082 433.66844 442.0841 450.4998">max_group_height</tspan></text>
<text fill="#a9a9a9" xml:space="preserve" transform="matrix(.88576987 0 0 .88576987 -197.20417 349.38087)" font-size="15.136136" font-family="Helvetica"><tspan y="1117.2135" x="625.1817 633.5974 642.0131 650.42886 658.84457 662.2048 670.6205 674.8283 683.244 688.28439 696.7001 704.2681 707.62838 715.1964 718.55667 726.97238">double precision</tspan></text>
<path transform="matrix(1.117261,0,0,1.117261,80,1350.4828)" d="M 0 0 L 346.92915 0 L 346.92915 29 L 0 29 L 0 0 Z " fill="#f7f7f7"/>
<text fill="#151515" xml:space="preserve" transform="matrix(.88576987 0 0 .88576987 -197.20417 349.38087)" font-size="15.136136" font-family="Helvetica"><tspan y="1153.7926" x="329.35029 337.76597 345.334 353.7497 358.79005 367.20573 375.6214 384.03709 392.45277 400.86845 405.90879 414.32447 422.74015 431.15583 439.5715 447.13957 450.4998 455.54014 463.1082 471.52388 484.13227 488.34013 496.7558 501.79615 510.21183 518.6275 526.19558">average_group_circumference</tspan></text>
<text fill="#a9a9a9" xml:space="preserve" transform="matrix(.88576987 0 0 .88576987 -197.20417 349.38087)" font-size="15.136136" font-family="Helvetica"><tspan y="1153.7926" x="625.1817 633.5974 642.0131 650.42886 658.84457 662.2048 670.6205 674.8283 683.244 688.28439 696.7001 704.2681 707.62838 715.1964 718.55667 726.97238">double precision</tspan></text>
<path transform="matrix(1.117261,0,0,1.117261,80,1382.8833)" d="M 0 0 L 346.92915 0 L 346.92915 29 L 0 29 L 0 0 Z " fill="#f7f7f7"/>
<text fill="#151515" xml:space="preserve" transform="matrix(.88576987 0 0 .88576987 -197.20417 349.38087)" font-size="15.136136" font-family="Helvetica"><tspan y="1190.3716" x="329.35029 341.95869 350.37437 357.9424 366.3581 374.77378 379.81413 388.2298 396.64549 405.06117 413.47685 421.0449 424.40513 429.44548 437.01353 445.4292 458.0376 462.24546 470.66114 475.70149 484.11717 492.53285 500.1009">max_group_circumference</tspan></text>
<text fill="#a9a9a9" xml:space="preserve" transform="matrix(.88576987 0 0 .88576987 -197.20417 349.38087)" font-size="15.136136" font-family="Helvetica"><tspan y="1190.3716" x="625.1817 633.5974 642.0131 650.42886 658.84457 662.2048 670.6205 674.8283 683.244 688.28439 696.7001 704.2681 707.62838 715.1964 718.55667 726.97238">double precision</tspan></text>
<path transform="matrix(1.117261,0,0,1.117261,80,1415.2838)" d="M 0 0 L 346.92915 0 L 346.92915 29 L 0 29 L 0 0 Z " fill="#f7f7f7"/>
<text fill="#151515" xml:space="preserve" transform="matrix(.88576987 0 0 .88576987 -197.20417 349.38087)" font-size="15.136136" font-family="Helvetica"><tspan y="1226.9506" x="329.35029 337.76597 346.18165 353.7497 358.79005 367.20573">decree</tspan></text>
<text fill="#a9a9a9" xml:space="preserve" transform="matrix(.88576987 0 0 .88576987 -197.20417 349.38087)" font-size="15.136136" font-family="Helvetica"><tspan y="1226.9506" x="575.568 583.13607 591.55178 599.96749 605.0078 613.4235 620.9916 625.1994 633.6151 638.65548 642.8633 650.43136 658.84707 663.8874 671.45547 674.8157 683.2314 691.6471 696.68746 705.10317 713.51889 721.9346 730.3503">character varying(1204)</tspan></text>
<path transform="matrix(1.117261,0,0,1.117261,80,1447.6845)" d="M 0 0 L 346.92915 0 L 346.92915 29 L 0 29 L 0 0 Z " fill="#f7f7f7"/>
<text fill="#151515" xml:space="preserve" transform="matrix(.88576987 0 0 .88576987 -197.20417 349.38087)" font-size="15.136136" font-family="Helvetica"><tspan y="1263.5296" x="329.35029 337.76597 346.18165 354.59733 357.95756 362.1654 365.52565 373.9413 382.357 390.77268 394.1329 402.54859 410.96427 419.37995 426.948 431.98835 440.40403">additional_decree</tspan></text>
<text fill="#a9a9a9" xml:space="preserve" transform="matrix(.88576987 0 0 .88576987 -197.20417 349.38087)" font-size="15.136136" font-family="Helvetica"><tspan y="1263.5296" x="575.568 583.13607 591.55178 599.96749 605.0078 613.4235 620.9916 625.1994 633.6151 638.65548 642.8633 650.43136 658.84707 663.8874 671.45547 674.8157 683.2314 691.6471 696.68746 705.10317 713.51889 721.9346 730.3503">character varying(1204)</tspan></text>
<path transform="matrix(1.117261,0,0,1.117261,80,1480.085)" d="M 0 0 L 346.92915 0 L 346.92915 29 L 0 29 L 0 0 Z " fill="#f7f7f7"/>
<text fill="#151515" xml:space="preserve" transform="matrix(.88576987 0 0 .88576987 -197.20417 349.38087)" font-size="15.136136" font-family="Helvetica"><tspan y="1300.1085" x="329.35029 336.91835 341.95869 350.37437 358.79005 362.9979 371.41358 379.82926 388.24494 396.6606">created_at</tspan></text>
<text fill="#a9a9a9" xml:space="preserve" transform="matrix(.88576987 0 0 .88576987 -197.20417 349.38087)" font-size="15.136136" font-family="Helvetica"><tspan y="1300.1085" x="665.6014 669.8092 673.16946 685.77786 694.19357 701.7616 705.9694 714.38516 726.9935">timestamp</tspan></text>
<path transform="matrix(1.117261,0,0,1.117261,80,1512.4856)" d="M 0 0 L 346.92915 0 L 346.92915 29 L 0 29 L 0 0 Z " fill="#f7f7f7"/>
<text fill="#151515" xml:space="preserve" transform="matrix(.88576987 0 0 .88576987 -197.20417 349.38087)" font-size="15.136136" font-family="Helvetica"><tspan y="1336.6875" x="329.35029 337.76597 346.18165 354.59733 363.013 367.22087 375.63655 384.05223 392.4679 400.88359">updated_at</tspan></text>
<text fill="#a9a9a9" xml:space="preserve" transform="matrix(.88576987 0 0 .88576987 -197.20417 349.38087)" font-size="15.136136" font-family="Helvetica"><tspan y="1336.6875" x="665.6014 669.8092 673.16946 685.77786 694.19357 701.7616 705.9694 714.38516 726.9935">timestamp</tspan></text>
</g>
</svg>
